<?xml version="1.0" encoding="UTF-8"?>
<svg width="14px" height="15px" viewBox="0 0 14 15" version="1.1" xmlns="http://www.w3.org/2000/svg" xmlns:xlink="http://www.w3.org/1999/xlink">
    <!-- Generator: Sketch 51.2 (57519) - http://www.bohemiancoding.com/sketch -->
    <title>Combined Shape</title>
    <desc>Created with Sketch.</desc>
    <defs></defs>
    <g id="员工" stroke="none" stroke-width="1" fill="none" fill-rule="evenodd">
        <g id="登陆页" transform="translate(-642.000000, -284.000000)" fill="#2CBEB0" fill-rule="nonzero">
            <g id="Group-4" transform="translate(627.000000, 213.000000)">
                <g id="Group">
                    <path d="M19.8116627,78.3488565 C18.7206884,77.6344984 18,76.4014121 18,75 C18,72.790861 19.790861,71 22,71 C24.209139,71 26,72.790861 26,75 C26,76.4014121 25.2793116,77.6344984 24.1883373,78.3488565 C26.9825932,79.2676752 29,81.8982423 29,85 C29,85.2761424 28.7761424,85.5 28.5,85.5 C28.2238576,85.5 28,85.2761424 28,85 C28,81.6862915 25.3137085,79 22,79 C18.6862915,79 16,81.6862915 16,85 C16,85.2761424 15.7761424,85.5 15.5,85.5 C15.2238576,85.5 15,85.2761424 15,85 C15,81.8982423 17.0174068,79.2676752 19.8116627,78.3488565 Z M22,78 C23.6568542,78 25,76.6568542 25,75 C25,73.3431458 23.6568542,72 22,72 C20.3431458,72 19,73.3431458 19,75 C19,76.6568542 20.3431458,78 22,78 Z" id="Combined-Shape"></path>
                </g>
            </g>
        </g>
    </g>
</svg>