<?xml version="1.0" encoding="UTF-8"?>
<svg width="14px" height="18px" viewBox="0 0 14 18" version="1.1" xmlns="http://www.w3.org/2000/svg" xmlns:xlink="http://www.w3.org/1999/xlink">
    <!-- Generator: Sketch 51.2 (57519) - http://www.bohemiancoding.com/sketch -->
    <title>1</title>
    <desc>Created with Sketch.</desc>
    <defs></defs>
    <g id="员工" stroke="none" stroke-width="1" fill="none" fill-rule="evenodd">
        <g id="登陆页" transform="translate(-642.000000, -225.000000)" fill="#2CBEB0">
            <g id="1" transform="translate(642.000000, 225.000000)">
                <path d="M7.00198704,1.34698634 C7.26569231,1.56375482 7.70472916,1.87951757 8.33044857,2.18681436 C9.67276972,2.84606025 11.2447432,3.18027829 13.0031012,3.18027829 C13.0219036,3.18027829 13.0404576,3.18027829 13.0589868,3.18017839 L13.0589868,10.327145 C13.0589868,10.8948887 13.0032006,11.3757251 12.8833571,11.8403788 C12.7314229,12.4299741 12.480236,12.9690483 12.1154152,13.4883187 C11.6730997,14.1180212 11.0575887,14.715533 10.2858466,15.2643468 C9.40566165,15.8902533 8.30104036,16.4686356 6.99995032,16.9847843 C5.6992577,16.4687355 4.59436319,15.8902533 3.71415341,15.2643468 C2.94253547,14.715533 2.32702448,14.1180212 1.88468417,13.4883187 C1.51986332,12.9690483 1.26867642,12.4299741 1.11674225,11.8403788 C0.996923634,11.3757251 0.941137439,10.8948887 0.941137439,10.327145 L0.941137439,3.18027829 C0.960138525,3.18037818 0.979065097,3.18037818 0.997892317,3.18037818 C2.76983671,3.18037818 4.34608233,2.84626004 5.6826659,2.18721393 C6.30418769,1.88069132 6.73934981,1.56530317 7.00198704,1.34698634 Z M7.00064579,0 L6.61165755,0.42746844 C6.59526445,0.445599075 4.9171581,2.23421374 0.997892317,2.23421374 C0.850205446,2.23421374 0.698966738,2.23169143 0.544896496,2.22642206 L0,2.20759217 L0,10.3272449 C0,12.4530994 0.70584687,15.5537877 6.80988979,17.9259541 L6.99995032,18 L7.19011021,17.9259541 C13.2941531,15.5537877 14,12.4530994 14,10.3272449 L14,2.20759217 L13.4551283,2.22642206 C13.3019274,2.23199111 13.1508626,2.23413882 13.0030019,2.23413882 L13.0025051,2.23413882 C9.11545422,2.23413882 7.4032701,0.442976876 7.38901308,0.42746844 L7.00064579,0 Z M6.35572658,13.0766584 C8.21236862,9.08287399 11.8225004,6.07493663 11.8225004,6.07493663 L11.4099657,5.60766071 C8.5216765,7.05963492 5.5300611,10.1714613 5.5300611,10.1714613 L3.36351508,8.56417798 L2.28082576,9.4462359 L6.35572658,13.0766584 Z"></path>
            </g>
        </g>
    </g>
</svg>