<?xml version="1.0" encoding="UTF-8"?>
<svg width="20px" height="20px" viewBox="0 0 20 20" version="1.1" xmlns="http://www.w3.org/2000/svg" xmlns:xlink="http://www.w3.org/1999/xlink">
    <!-- Generator: Sketch 51.2 (57519) - http://www.bohemiancoding.com/sketch -->
    <title>Group 5</title>
    <desc>Created with Sketch.</desc>
    <defs></defs>
    <g id="员工" stroke="none" stroke-width="1" fill="none" fill-rule="evenodd">
        <g id="登陆页" transform="translate(-626.000000, -381.000000)">
            <g id="Group-4" transform="translate(627.000000, 213.000000)">
                <g id="Group">
                    <g id="Group-5" transform="translate(0.000000, 169.000000)">
                        <circle id="Oval-9" stroke="#2CBEB0" fill="#FFFFFF" cx="9" cy="9" r="9"></circle>
                        <path d="M4,8.14559937 L4,8.33639442 C4,8.59718055 4.10187562,8.84764974 4.28390511,9.03439736 L7.03695071,11.8588008 C7.42244709,12.2542891 8.05556026,12.2623891 8.45104855,11.8768928 C8.45613898,11.8719309 8.46117637,11.866915 8.46615984,11.8618457 L13.7131142,6.52458119 C13.8969718,6.33755907 14,6.08579444 14,5.82353334 L14,5.61637878 C14,5.45262565 13.8672519,5.3198775 13.7034987,5.3198775 C13.6362399,5.3198775 13.5709795,5.34274504 13.5184311,5.38472609 L8.31479424,9.54191866 C7.97769396,9.81122853 7.50587412,9.83395902 7.14444643,9.59830158 L4.50053661,7.87442418 C4.3507707,7.77677407 4.15020038,7.81902228 4.05255027,7.9687882 C4.01825803,8.02138219 4,8.08281334 4,8.14559937 Z" id="Path-8-Copy-3" fill="#2CBEB0"></path>
                    </g>
                </g>
            </g>
        </g>
    </g>
</svg>