<?xml version="1.0" encoding="UTF-8"?>
<svg width="14px" height="15px" viewBox="0 0 14 15" version="1.1" xmlns="http://www.w3.org/2000/svg" xmlns:xlink="http://www.w3.org/1999/xlink">
    <!-- Generator: Sketch 51.2 (57519) - http://www.bohemiancoding.com/sketch -->
    <title>Combined Shape</title>
    <desc>Created with Sketch.</desc>
    <defs></defs>
    <g id="员工" stroke="none" stroke-width="1" fill="none" fill-rule="evenodd">
        <g id="登陆页" transform="translate(-642.000000, -341.000000)" fill="#2CBEB0" fill-rule="nonzero">
            <g id="Group-4" transform="translate(627.000000, 213.000000)">
                <g id="Group">
                    <path d="M17,135.5 C16.4477153,135.5 16,135.947715 16,136.5 L16,140.5 C16,141.052285 16.4477153,141.5 17,141.5 L27,141.5 C27.5522847,141.5 28,141.052285 28,140.5 L28,136.5 C28,135.947715 27.5522847,135.5 27,135.5 L17,135.5 Z M18,134.5 L27,134.5 C28.1045695,134.5 29,135.395431 29,136.5 L29,140.5 C29,141.604569 28.1045695,142.5 27,142.5 L17,142.5 C15.8954305,142.5 15,141.604569 15,140.5 L15,136.5 C15,135.395431 15.8954305,134.5 17,134.5 L17,133 C17,130.238576 19.2385763,128 22,128 C23.7840835,128 25.4053414,128.942584 26.3003979,130.447831 C26.5597074,130.883921 26.7515057,131.357572 26.8680043,131.854285 C26.9310594,132.123132 26.7642322,132.392191 26.4953853,132.455246 C26.2265384,132.518302 25.9574786,132.351474 25.8944235,132.082627 C25.8013716,131.685884 25.6481637,131.307533 25.4408733,130.958926 C24.7242627,129.753777 23.4277556,129 22,129 C19.790861,129 18,130.790861 18,133 L18,134.5 Z" id="Combined-Shape"></path>
                </g>
            </g>
        </g>
    </g>
</svg>